<svg width="24" height="24" viewBox="0 0 24 24" fill="none" xmlns="http://www.w3.org/2000/svg">
<path fill-rule="evenodd" clip-rule="evenodd" d="M18.9146 6C18.764 6.42621 18.4262 6.764 18 6.91465C17.8436 6.96992 17.6753 7 17.5 7H6.5C6.32468 7 6.15639 6.96992 6 6.91465C5.57379 6.764 5.236 6.42621 5.08535 6C5.03008 5.84361 5 5.67532 5 5.5C5 4.67157 5.67157 4 6.5 4H8.5L9.20711 3.29289C9.39464 3.10536 9.649 3 9.91421 3H14.0858C14.351 3 14.6054 3.10536 14.7929 3.29289L15.5 4H17.5C18.3284 4 19 4.67157 19 5.5C19 5.67532 18.9699 5.84361 18.9146 6ZM18 8.96456V8H17.5H16H8H6.5H6V8.96456V10V19C6 20.1 6.9 21 8 21H16C17.1 21 18 20.1 18 19V10V8.96456ZM16 10V19H15V10H16ZM13 10V19H11V10H13ZM9 10V19H8V10H9Z" fill="#FC4D30"/>
</svg>
