<svg width="18" height="18" viewBox="0 0 18 18" fill="none" xmlns="http://www.w3.org/2000/svg">
<path d="M13.125 3.375C11.6625 3.375 10.0875 3.675 9 4.5C7.9125 3.675 6.3375 3.375 4.875 3.375C3.7875 3.375 2.6325 3.54 1.665 3.9675C1.1175 4.215 0.75 4.7475 0.75 5.355V13.815C0.75 14.79 1.665 15.51 2.61 15.27C3.345 15.0825 4.125 15 4.875 15C6.045 15 7.29 15.195 8.295 15.69C8.745 15.915 9.255 15.915 9.6975 15.69C10.7025 15.1875 11.9475 15 13.1175 15C13.8675 15 14.6475 15.0825 15.3825 15.27C16.3275 15.5175 17.2425 14.7975 17.2425 13.815V5.355C17.2425 4.7475 16.875 4.215 16.3275 3.9675C15.3675 3.54 14.2125 3.375 13.125 3.375ZM15.75 12.9225C15.75 13.395 15.315 13.74 14.85 13.6575C14.2875 13.5525 13.7025 13.5075 13.125 13.5075C11.85 13.5075 10.0125 13.995 9 14.6325V6C10.0125 5.3625 11.85 4.875 13.125 4.875C13.815 4.875 14.4975 4.9425 15.15 5.085C15.495 5.16 15.75 5.4675 15.75 5.82V12.9225Z" fill="white"/>
<path d="M10.4849 8.25751C10.2449 8.25751 10.0274 8.10751 9.95241 7.86751C9.85491 7.57501 10.0199 7.25251 10.3124 7.16251C11.4674 6.78751 12.9599 6.66751 14.3324 6.82501C14.6399 6.86251 14.8649 7.14001 14.8274 7.44751C14.7899 7.75501 14.5124 7.98001 14.2049 7.94251C12.9899 7.80001 11.6624 7.91251 10.6574 8.23501C10.5974 8.24251 10.5374 8.25751 10.4849 8.25751Z" fill="white"/>
<path d="M10.4849 10.2525C10.2449 10.2525 10.0274 10.1025 9.95241 9.86251C9.85491 9.57001 10.0199 9.24751 10.3124 9.15751C11.4599 8.78251 12.9599 8.66251 14.3324 8.82001C14.6399 8.85751 14.8649 9.13501 14.8274 9.44251C14.7899 9.75001 14.5124 9.97501 14.2049 9.93751C12.9899 9.79501 11.6624 9.90751 10.6574 10.23C10.5974 10.245 10.5374 10.2525 10.4849 10.2525Z" fill="white"/>
<path d="M10.4849 12.2475C10.2449 12.2475 10.0274 12.0975 9.95241 11.8575C9.85491 11.565 10.0199 11.2425 10.3124 11.1525C11.4599 10.7775 12.9599 10.6575 14.3324 10.815C14.6399 10.8525 14.8649 11.13 14.8274 11.4375C14.7899 11.745 14.5124 11.9625 14.2049 11.9325C12.9899 11.79 11.6624 11.9025 10.6574 12.225C10.5974 12.24 10.5374 12.2475 10.4849 12.2475Z" fill="white"/>
</svg>
