<svg width="18" height="18" viewBox="0 0 18 18" fill="none" xmlns="http://www.w3.org/2000/svg">
<path d="M14.4225 11.4448L12.5175 11.2273C12.06 11.1748 11.61 11.3323 11.2875 11.6548L9.90753 13.0348C7.78503 11.9548 6.04503 10.2223 4.96503 8.09232L6.35253 6.70482C6.67503 6.38232 6.83253 5.93232 6.78003 5.47482L6.56253 3.58482C6.47253 2.82732 5.83503 2.25732 5.07003 2.25732H3.77253C2.92503 2.25732 2.22003 2.96232 2.27253 3.80982C2.67003 10.2148 7.79253 15.3298 14.19 15.7273C15.0375 15.7798 15.7425 15.0748 15.7425 14.2273V12.9298C15.75 12.1723 15.18 11.5348 14.4225 11.4448Z" fill="#62605D"/>
</svg>
