<svg width="18" height="18" viewBox="0 0 18 18" fill="none" xmlns="http://www.w3.org/2000/svg">
<g clip-path="url(#clip0)">
<path fill-rule="evenodd" clip-rule="evenodd" d="M8.99813 1.5H9.00187C13.1372 1.5 16.5 4.86469 16.5 9C16.5 13.1353 13.1372 16.5 9.00187 16.5C7.47656 16.5 6.06187 16.0463 4.87594 15.2606L1.99313 16.1822L2.92781 13.3959C2.02875 12.1613 1.5 10.6406 1.5 9C1.5 4.86375 4.86281 1.5 8.99813 1.5ZM11.8941 13.1492C12.4669 13.0255 13.185 12.6017 13.366 12.0908C13.5469 11.5789 13.5469 11.143 13.4944 11.0502C13.452 10.9765 13.3518 10.9283 13.2021 10.8562C13.1632 10.8375 13.1208 10.8171 13.0753 10.7942C12.855 10.6846 11.7835 10.1549 11.581 10.0846C11.3822 10.0096 11.1928 10.0358 11.0428 10.2477C11.0143 10.2876 10.9858 10.3276 10.9575 10.3675C10.7766 10.622 10.602 10.8675 10.4569 11.0239C10.3247 11.1646 10.1091 11.1824 9.92814 11.1074C9.90842 11.0991 9.88581 11.09 9.86048 11.0798C9.574 10.9641 8.93856 10.7074 8.16939 10.0227C7.52064 9.44518 7.08002 8.72611 6.95252 8.51049C6.82734 8.29418 6.93531 8.16734 7.03511 8.05012C7.03696 8.04795 7.0388 8.04578 7.04064 8.04361C7.10498 7.964 7.16742 7.89772 7.23017 7.8311C7.27531 7.78318 7.32061 7.73508 7.36689 7.68174C7.37377 7.67382 7.38045 7.66613 7.38696 7.65864C7.48524 7.54564 7.54376 7.47836 7.60971 7.33768C7.68471 7.19236 7.63127 7.04236 7.57783 6.93174C7.54106 6.85426 7.31393 6.30318 7.11896 5.83011C7.03553 5.6277 6.95799 5.43956 6.90377 5.30893C6.75845 4.96111 6.64783 4.94799 6.42752 4.93861C6.42077 4.93828 6.41395 4.93793 6.40707 4.93758C6.33743 4.93406 6.26073 4.93018 6.17627 4.93018C5.88939 4.93018 5.59033 5.01455 5.40939 5.19924C5.40307 5.2057 5.39648 5.2124 5.38964 5.21935C5.15816 5.45477 4.64252 5.97919 4.64252 7.02455C4.64252 8.07193 5.38568 9.08558 5.52318 9.27313C5.52697 9.2783 5.5303 9.28284 5.53314 9.28674C5.54142 9.29761 5.55701 9.32019 5.57971 9.35306C5.86047 9.75965 7.22799 11.74 9.26721 12.5849C10.9903 13.2992 11.5022 13.2327 11.8941 13.1492Z" fill="#62605D"/>
</g>
<defs>
<clipPath id="clip0">
<rect width="15" height="15" fill="white" transform="translate(1.5 1.5)"/>
</clipPath>
</defs>
</svg>
